<svg width="50" height="51" viewBox="0 0 50 51" fill="none" xmlns="http://www.w3.org/2000/svg">
<path fill-rule="evenodd" clip-rule="evenodd" d="M31.4922 29.691C31.6462 30.9558 31.3091 32.1071 30.5187 33.022C29.4836 34.2181 27.6895 34.983 25.6654 35.1209V37.0606C25.6654 37.4325 25.3636 37.7344 24.9912 37.7344C24.6193 37.7344 24.3174 37.4325 24.3174 37.0606V35.1132C21.7901 34.8836 19.1957 33.4696 18.4735 30.5732C18.3836 30.2116 18.6026 29.8469 18.9643 29.7563C19.3271 29.6661 19.6906 29.8862 19.7815 30.2471C20.4121 32.7773 22.9474 33.8602 25.2146 33.8012C26.6203 33.7678 28.4847 33.314 29.4993 32.1413C30.0425 31.513 30.2623 30.7442 30.1544 29.8532C29.9065 27.8083 28.2848 26.6484 24.8992 26.0927C21.1552 25.4776 19.1913 23.8402 19.0644 21.2263C18.9426 18.7317 20.7076 16.6372 23.4565 16.0136C23.7349 15.9505 24.0239 15.9083 24.3181 15.8793V13.9265C24.3181 13.5545 24.62 13.2534 24.9919 13.2534C25.3642 13.2534 25.6661 13.5545 25.6661 13.9265V15.8731C27.7877 16.062 29.9511 17.1958 30.9943 19.6794C31.1385 20.0227 30.9778 20.4174 30.6348 20.5612C30.2904 20.7057 29.8968 20.5443 29.7523 20.2014C28.6372 17.5453 25.8619 16.8502 23.7554 17.3271C22.1444 17.6924 20.3012 18.9161 20.4101 21.1609C20.5037 23.0794 22.0442 24.2576 25.1178 24.7626C26.5762 25.0014 31.0113 25.7303 31.4922 29.691ZM24.992 40.1508C33.0749 40.1508 39.6501 33.5755 39.6501 25.4936C39.6501 17.4099 33.0748 10.8345 24.992 10.8345C16.9098 10.8345 10.3338 17.4098 10.3338 25.4926C10.3338 33.5755 16.9099 40.1508 24.992 40.1508ZM24.992 9.48696C16.1663 9.48696 8.98629 16.6672 8.98629 25.4926C8.98629 34.3183 16.1658 41.4983 24.992 41.4983C33.8181 41.4983 40.9976 34.3181 40.9976 25.4926C40.9976 16.6672 33.8178 9.48696 24.992 9.48696ZM48.5681 27.4533V23.5318L44.9385 22.1338C44.7221 22.0513 44.5644 21.862 44.5196 21.6353C44.0109 19.0434 43.0029 16.6145 41.5261 14.4141C41.397 14.2219 41.3754 13.9768 41.4696 13.7648L43.0498 10.2071L40.2772 7.43447L36.7177 9.01466C36.5064 9.1082 36.261 9.08766 36.0692 8.95817C33.8694 7.48071 31.4401 6.47417 28.8489 5.96503C28.6223 5.92028 28.4334 5.76219 28.3505 5.54614L26.9533 1.91663H23.0317L21.6334 5.54765C21.5509 5.76406 21.3616 5.92179 21.1349 5.96654C18.5442 6.47493 16.1152 7.48184 13.9147 8.95968C13.7228 9.08879 13.4775 9.1097 13.2662 9.01616L9.70671 7.43597L6.93405 10.2086L8.51537 13.7673C8.6089 13.9786 8.58763 14.2237 8.45888 14.4159C6.98104 16.6156 5.97413 19.0446 5.46536 21.6361C5.42061 21.8628 5.26326 22.0517 5.04684 22.1346L1.41657 23.5318V27.4533L5.04609 28.8512C5.26251 28.9338 5.42023 29.122 5.46498 29.3497C5.97374 31.9413 6.98169 34.3706 8.45849 36.571C8.58761 36.7629 8.60925 37.0083 8.51498 37.2192L6.93479 40.7776L9.70745 43.5503L13.2669 41.9693C13.4782 41.8758 13.7236 41.8971 13.9154 42.0258C16.1152 43.5036 18.5445 44.5106 21.1357 45.0182C21.3624 45.0629 21.5513 45.221 21.6342 45.4371L23.0325 49.0681H26.954L28.3523 45.4392C28.4349 45.2228 28.623 45.0651 28.8508 45.0204C31.4423 44.5116 33.8717 43.5036 36.0714 42.0268C36.2633 41.8977 36.5087 41.8772 36.72 41.9703L40.2784 43.5505L43.051 40.7779L41.4701 37.2184C41.3766 37.0071 41.3978 36.7617 41.5266 36.5699C43.0044 34.3702 44.0113 31.9408 44.519 29.3497C44.5637 29.123 44.7218 28.9341 44.9386 28.8512L48.5681 27.4533ZM49.484 22.4401L45.7664 21.0089C45.2279 18.4995 44.2485 16.1366 42.8506 13.9758L44.4685 10.3319C44.5826 10.0773 44.5261 9.77912 44.3295 9.58214L40.9028 6.1547C40.7051 5.95809 40.4073 5.90234 40.1531 6.01495L36.5082 7.63402C34.3465 6.23609 31.9847 5.25678 29.4761 4.71863L28.0448 0.999902C27.9443 0.740572 27.6938 0.568909 27.4158 0.568909H22.5695C22.2908 0.568909 22.041 0.740206 21.9401 1.00064L20.5088 4.71937C18.0002 5.25711 15.638 6.23683 13.4768 7.63476L9.83186 6.01569C9.57655 5.90235 9.27872 5.9581 9.0821 6.15545L5.65466 9.58288C5.45805 9.78023 5.40157 10.0781 5.51564 10.3326L7.13471 13.9769C5.7364 16.1378 4.75635 18.5004 4.21894 21.009L0.500216 22.4402C0.24052 22.5404 0.0688477 22.7902 0.0688477 23.0689V27.9155C0.0688477 28.1943 0.240144 28.4441 0.499841 28.5439L4.21744 29.9751C4.75591 32.4837 5.73528 34.8463 7.1332 37.0079L5.51526 40.6522C5.40119 40.9064 5.45768 41.205 5.65429 41.4016L9.08173 44.829C9.27834 45.0256 9.57618 45.081 9.83148 44.9681L13.4764 43.349C15.638 44.7473 17.9999 45.7262 20.5085 46.2648L21.9397 49.9835C22.0399 50.2435 22.2904 50.4145 22.5692 50.4145H27.4154C27.6942 50.4145 27.9439 50.2432 28.0441 49.9835L29.4753 46.2659C31.9839 45.7274 34.3473 44.748 36.5082 43.3501L40.1524 44.9681C40.4066 45.081 40.7045 45.0256 40.9022 44.829L44.3289 41.4016C44.5255 41.205 44.582 40.906 44.4679 40.6522L42.8496 37.0079C44.2479 34.8463 45.2268 32.4845 45.7653 29.9759L49.4841 28.5446C49.7441 28.4448 49.9151 28.1947 49.9151 27.9163V23.0697C49.9158 22.7902 49.7441 22.5404 49.4841 22.4402L49.484 22.4401Z" fill="#5FC6C1"/>
</svg>
