<svg width="11" height="11" viewBox="0 0 11 11" fill="none" xmlns="http://www.w3.org/2000/svg">
<g clip-path="url(#clip0_4725_962)">
<path d="M10.625 6.69155C9.95949 9.35403 7.25447 10.9725 4.58839 10.3088C1.91843 9.64513 0.295437 6.94772 0.961002 4.28907C1.62653 1.62659 4.32762 0.0080961 6.99759 0.671816C9.66366 1.33162 11.2906 4.02903 10.625 6.69155Z" fill="url(#paint0_linear_4725_962)"/>
<path d="M8.16412 4.87121C8.2614 4.21149 7.7594 3.85446 7.06671 3.61774L7.29242 2.72129L6.74761 2.58547L6.52968 3.45863C6.3857 3.4237 6.23782 3.38878 6.08994 3.35773L6.30787 2.48069L5.76305 2.34486L5.54124 3.23743C5.4206 3.21026 5.30386 3.1831 5.191 3.15593V3.15205L4.43605 2.96578L4.29206 3.54789C4.29206 3.54789 4.69678 3.64102 4.689 3.6449C4.91081 3.69923 4.94973 3.8467 4.94195 3.96312L4.68511 4.98375C4.70067 4.98763 4.72013 4.99151 4.74348 5.00316C4.72402 4.99928 4.70456 4.9954 4.68511 4.98763L4.32709 6.41574C4.29985 6.48171 4.2298 6.58261 4.07803 6.5438C4.08192 6.55156 3.6811 6.44678 3.6811 6.44678L3.40869 7.07158L4.12084 7.25009C4.25315 7.28502 4.38157 7.31606 4.50999 7.35099L4.28428 8.2552L4.82909 8.39102L5.0548 7.49458C5.20268 7.53339 5.35055 7.57219 5.49065 7.60712L5.26883 8.49968L5.81364 8.63551L6.03935 7.7313C6.97331 7.90593 7.67379 7.83608 7.96565 6.99397C8.20303 6.31872 7.95397 5.92677 7.46364 5.67064C7.82555 5.58914 8.09407 5.35242 8.16412 4.87121ZM6.91494 6.61754C6.74761 7.29278 5.6035 6.92799 5.23381 6.83486L5.53346 5.63571C5.90315 5.72885 7.09395 5.91124 6.91494 6.61754ZM7.08617 4.85957C6.93051 5.4766 5.98098 5.16227 5.67355 5.08465L5.94596 3.99805C6.25339 4.07566 7.24572 4.21925 7.08617 4.85957Z" fill="#26233C"/>
</g>
<defs>
<linearGradient id="paint0_linear_4725_962" x1="5.79021" y1="0.520611" x2="5.79021" y2="10.4566" gradientUnits="userSpaceOnUse">
<stop stop-color="#F9AA4B"/>
<stop offset="1" stop-color="#F7931A"/>
</linearGradient>
<clipPath id="clip0_4725_962">
<rect x="0.811523" y="0.522858" width="9.96227" height="9.93464" fill="white"/>
</clipPath>
</defs>
</svg>
