<svg width="100" height="90" viewBox="0 0 100 90" fill="none" xmlns="http://www.w3.org/2000/svg">
<path d="M44.8541 7.92303C35.4737 5.68158 25.4512 7.71023 17.4325 12.9941C9.02406 18.5348 3.45673 27.4073 1.5723 37.2366C-2.31549 57.5154 9.56231 77.7737 28.3344 85.8448C48.0684 94.3296 71.5441 88.6364 85.8748 72.889C92.9779 65.0838 97.4172 55.2094 98.7537 44.7673C100.07 34.4804 98.5687 22.6118 92.3243 14.0264C86.1303 5.51031 75.8162 2.65252 65.8552 1.25692C56.19 -0.0972268 43.3681 -0.685811 38.1421 9.51886C37.1457 11.4645 36.6774 13.5611 36.7878 15.7433C36.8646 17.2616 39.2418 17.2708 39.1645 15.7433C38.9231 10.9721 42.112 6.98529 46.1994 4.84091C50.9365 2.35567 56.6503 2.56614 61.8165 3.12006C71.1432 4.12008 81.7322 5.90403 88.4581 13.0494C95.1581 20.1673 97.1665 31.0141 96.7506 40.4624C96.3165 50.3244 92.91 60.0311 86.9411 67.9183C75.1625 83.4825 54.5544 90.8873 35.5957 85.8593C17.123 80.9602 16.8815 70.0247 17.1865 50.659C17.3492 40.3276 7.56571 24.0658 15.5535 17.3333C23.3741 10.7416 34.2136 7.81761 44.2223 10.2092C45.709 10.5644 46.3434 8.2789 44.8542 7.92305L44.8541 7.92303Z" fill="#269E96"/>
</svg>
