<svg width="242" height="148" viewBox="0 0 242 148" fill="none" xmlns="http://www.w3.org/2000/svg">
<path d="M8.23309 85.2836C12.7802 80.287 20.2901 81.7472 25.2867 85.2738C31.7173 89.8125 33.5563 98.101 34.5049 105.448C36.1109 117.886 36.5861 135.467 50.7254 140.667C57.258 143.07 64.736 141.086 70.2536 137.185C76.2805 132.924 80.0398 126.37 82.5578 119.577C85.6065 111.352 87.3711 102.555 88.867 93.936C90.3967 85.1221 91.3992 76.2132 91.8494 67.2794C92.2899 58.539 92.0032 49.8561 91.6549 41.1215C91.3829 34.3017 91.2792 27.1405 93.5886 20.6192C95.921 14.033 101.344 9.02346 108.474 8.36271C115.396 7.72135 122.524 10.6326 127.531 15.3313C139.546 26.6054 140.112 45.0106 142.797 60.127C144.208 68.0691 146.271 76.1058 150.594 83.0157C154.15 88.6986 159.091 93.4629 164.783 96.9976C176.264 104.127 190.893 106.208 203.633 101.309C216.071 96.5274 226.083 86.0738 230.415 73.509C231.485 70.4059 232.146 67.2004 232.481 63.939C232.636 62.4227 230.259 62.4336 230.104 63.939C228.68 77.7996 219.76 90.3525 207.538 96.9265C194.961 103.691 179.731 102.833 167.443 95.82C161.402 92.3724 156.148 87.5096 152.496 81.5795C148.068 74.3878 146.172 66.0052 144.793 57.7747C142.301 42.9096 141.171 25.8421 130.002 14.4285C121.341 5.57679 105.401 2.02452 96.0924 11.8842C86.507 22.0367 89.3803 38.3907 89.6864 50.9936C90.1347 69.4509 88.227 87.9511 83.9982 105.926C82.1575 113.75 80.0401 121.818 75.4202 128.527C71.1981 134.659 64.2976 139.411 56.6137 139.335C48.9509 139.26 43.5669 133.642 40.8464 126.944C37.9764 119.878 37.7883 112.247 36.7951 104.788C35.8834 97.9406 34.2223 90.3634 29.0746 85.3523C25.0716 81.4556 19.1333 78.9472 13.4994 79.8435C10.7922 80.2741 8.39163 81.5862 6.55245 83.6071C5.52638 84.7347 7.20231 86.4162 8.23306 85.2836H8.23309Z" fill="#269E96"/>
<path d="M8.03114 91.8256C11.9691 91.8256 15.1614 88.6412 15.1614 84.7131C15.1614 80.785 11.9691 77.6006 8.03114 77.6006C4.09321 77.6006 0.900879 80.785 0.900879 84.7131C0.900879 88.6412 4.09321 91.8256 8.03114 91.8256Z" fill="#3F3D56"/>
<path d="M55.5663 147.145C59.5042 147.145 62.6966 143.961 62.6966 140.033C62.6966 136.105 59.5042 132.92 55.5663 132.92C51.6284 132.92 48.436 136.105 48.436 140.033C48.436 143.961 51.6284 147.145 55.5663 147.145Z" fill="#3F3D56"/>
<path d="M109.439 14.3781C113.377 14.3781 116.57 11.1937 116.57 7.26559C116.57 3.33746 113.377 0.153076 109.439 0.153076C105.501 0.153076 102.309 3.33746 102.309 7.26559C102.309 11.1937 105.501 14.3781 109.439 14.3781Z" fill="#3F3D56"/>
<path d="M188.664 109.212C192.602 109.212 195.795 106.027 195.795 102.099C195.795 98.1712 192.602 94.9868 188.664 94.9868C184.727 94.9868 181.534 98.1712 181.534 102.099C181.534 106.027 184.727 109.212 188.664 109.212Z" fill="#3F3D56"/>
<path d="M234.615 71.2783C238.553 71.2783 241.745 68.0939 241.745 64.1657C241.745 60.2376 238.553 57.0532 234.615 57.0532C230.677 57.0532 227.485 60.2376 227.485 64.1657C227.485 68.0939 230.677 71.2783 234.615 71.2783Z" fill="#3F3D56"/>
</svg>
