<svg width="620" height="554" viewBox="0 0 620 554" fill="none" xmlns="http://www.w3.org/2000/svg">
<path d="M358.649 59.039H304.426C303.059 59.039 301.947 57.9295 301.947 56.5659C301.947 55.2023 303.059 54.0933 304.426 54.0933H358.649C360.016 54.0933 361.127 55.2023 361.127 56.5659C361.127 57.9295 360.016 59.039 358.649 59.039V59.039Z" fill="#E6E6E6"/>
<path d="M442.627 202.87H388.405C387.038 202.87 385.926 201.76 385.926 200.397C385.926 199.033 387.038 197.924 388.405 197.924H442.627C443.994 197.924 445.106 199.033 445.106 200.397C445.106 201.76 443.994 202.87 442.627 202.87V202.87Z" fill="#E6E6E6"/>
<path d="M239.811 5.29975H185.588C184.221 5.29975 183.109 4.19021 183.109 2.82662C183.109 1.46302 184.221 0.354004 185.588 0.354004H239.811C241.178 0.354004 242.29 1.46302 242.29 2.82662C242.29 4.19021 241.178 5.29973 239.811 5.29973V5.29975Z" fill="#E6E6E6"/>
<path d="M265.163 178.156H210.94C209.573 178.156 208.461 177.046 208.461 175.683C208.461 174.319 209.573 173.21 210.94 173.21H265.163C266.53 173.21 267.642 174.319 267.642 175.683C267.642 177.046 266.53 178.156 265.163 178.156V178.156Z" fill="#E6E6E6"/>
<path d="M230.233 156.284C234.78 151.287 242.29 152.747 247.287 156.274C253.717 160.813 255.556 169.101 256.505 176.448C258.111 188.886 258.586 206.467 272.725 211.667C279.258 214.07 286.736 212.086 292.254 208.185C298.28 203.924 302.04 197.37 304.558 190.577C307.606 182.352 309.371 173.555 310.867 164.936C312.397 156.122 313.399 147.213 313.849 138.279C314.29 129.539 314.003 120.856 313.655 112.121C313.383 105.302 313.279 98.1405 315.589 91.6192C317.921 85.033 323.344 80.0235 330.474 79.3627C337.396 78.7214 344.524 81.6326 349.531 86.3313C361.546 97.6054 362.112 116.011 364.797 131.127C366.208 139.069 368.271 147.106 372.594 154.016C376.15 159.699 381.091 164.463 386.783 167.998C398.264 175.127 412.893 177.208 425.633 172.309C438.071 167.527 448.083 157.074 452.415 144.509C453.485 141.406 454.146 138.2 454.481 134.939C454.636 133.423 452.259 133.434 452.104 134.939C450.68 148.8 441.76 161.352 429.538 167.927C416.961 174.691 401.731 173.833 389.443 166.82C383.402 163.372 378.148 158.51 374.496 152.579C370.068 145.388 368.172 137.005 366.793 128.775C364.301 113.91 363.171 96.8421 352.002 85.4285C343.341 76.5768 327.401 73.0245 318.092 82.8842C308.507 93.0367 311.38 109.391 311.686 121.994C312.135 140.451 310.227 158.951 305.998 176.926C304.157 184.75 302.04 192.818 297.42 199.527C293.198 205.659 286.298 210.411 278.614 210.335C270.951 210.26 265.567 204.642 262.846 197.944C259.976 190.878 259.788 183.247 258.795 175.788C257.883 168.941 256.222 161.363 251.075 156.352C247.072 152.456 241.133 149.947 235.499 150.843C232.792 151.274 230.392 152.586 228.552 154.607C227.526 155.735 229.202 157.416 230.233 156.284H230.233Z" fill="#269E96"/>
<path d="M230.031 162.826C233.969 162.826 237.161 159.641 237.161 155.713C237.161 151.785 233.969 148.601 230.031 148.601C226.093 148.601 222.901 151.785 222.901 155.713C222.901 159.641 226.093 162.826 230.031 162.826Z" fill="#3F3D56"/>
<path d="M277.566 218.145C281.504 218.145 284.697 214.961 284.697 211.033C284.697 207.105 281.504 203.92 277.566 203.92C273.628 203.92 270.436 207.105 270.436 211.033C270.436 214.961 273.628 218.145 277.566 218.145Z" fill="#3F3D56"/>
<path d="M331.439 85.3781C335.377 85.3781 338.57 82.1937 338.57 78.2656C338.57 74.3375 335.377 71.1531 331.439 71.1531C327.501 71.1531 324.309 74.3375 324.309 78.2656C324.309 82.1937 327.501 85.3781 331.439 85.3781Z" fill="#3F3D56"/>
<path d="M410.664 180.212C414.602 180.212 417.795 177.027 417.795 173.099C417.795 169.171 414.602 165.987 410.664 165.987C406.727 165.987 403.534 169.171 403.534 173.099C403.534 177.027 406.727 180.212 410.664 180.212Z" fill="#3F3D56"/>
<path d="M456.615 142.278C460.553 142.278 463.745 139.094 463.745 135.166C463.745 131.238 460.553 128.053 456.615 128.053C452.677 128.053 449.485 131.238 449.485 135.166C449.485 139.094 452.677 142.278 456.615 142.278Z" fill="#3F3D56"/>
<path d="M573.713 409.749C572.375 407.499 566.587 409.908 565.523 407.866C564.463 405.831 569.84 402.731 572.912 395.648C573.466 394.371 576.958 386.323 574.373 383.839C569.474 379.132 547.057 398.558 539.212 392.201C537.49 390.806 536.287 388.021 531.077 383.499C529.004 381.7 527.75 380.888 526.537 381.19C524.816 381.618 524.679 383.917 522.833 388.435C520.065 395.211 518.428 394.802 516.815 400.209C515.618 404.222 515.892 406.555 514.483 407.01C512.489 407.653 510.654 403.396 508.127 403.777C505.549 404.166 503.99 409.123 503.498 412.834C502.574 419.798 505.138 424.393 506.559 429.225C508.103 434.477 509.02 442.462 505.453 453.768L470.155 552.973C477.948 532.617 500.512 476.813 509.993 456.077C512.73 450.09 515.752 444.018 521.957 441.622C527.932 439.315 536.137 440.692 546.597 438.178C547.819 437.885 551.209 437.025 551.635 435.036C551.988 433.391 549.994 432.473 550.3 430.933C550.711 428.867 554.633 428.842 559.451 426.459C562.849 424.778 564.966 422.779 566.787 421.061C567.335 420.542 575.494 412.744 573.713 409.749H573.713H573.713Z" fill="#F2F2F2"/>
<path d="M434.839 461.975C433.345 461.981 432.861 465.509 431.549 465.441C430.242 465.373 430.268 461.846 427.67 458.298C427.201 457.658 424.249 453.627 422.281 454.176C418.551 455.216 421.642 471.796 416.25 473.803C415.067 474.243 413.349 474.028 409.621 475.275C408.138 475.771 407.376 476.15 407.175 476.831C406.889 477.798 407.981 478.527 409.671 480.735C412.207 484.045 411.533 484.729 413.728 487.078C415.357 488.822 416.584 489.362 416.401 490.183C416.142 491.344 413.518 491.015 412.977 492.361C412.424 493.736 414.413 495.929 416.097 497.241C419.257 499.703 422.258 499.773 425.046 500.472C428.075 501.231 432.269 503.087 436.802 508.094L475.43 554C467.662 544.311 446.716 517.163 439.248 506.538C437.092 503.471 434.977 500.239 435.588 496.51C436.177 492.919 439.222 489.3 441.003 483.453C441.211 482.77 441.766 480.862 440.91 480.08C440.203 479.432 439.176 480.144 438.507 479.549C437.609 478.752 438.728 476.825 438.946 473.778C439.099 471.63 438.726 470.017 438.406 468.629C438.309 468.211 436.826 461.967 434.839 461.975V461.975Z" fill="#F2F2F2"/>
<path d="M464.627 468.645L463.727 460.635L464.138 460.027C466.04 457.219 467.009 454.477 467.021 451.874C467.023 451.46 467.004 451.046 466.984 450.624C466.907 448.953 466.81 446.876 467.895 444.455C468.504 443.105 470.214 439.98 472.785 440.366C473.477 440.463 474.001 440.78 474.398 441.152C474.456 441.059 474.516 440.966 474.58 440.865C475.381 439.647 476.015 439.125 476.626 438.622C477.095 438.235 477.58 437.837 478.34 436.893C478.673 436.479 478.933 436.116 479.152 435.81C479.817 434.886 480.686 433.783 482.217 433.802C483.854 433.88 484.711 435.23 485.279 436.123C486.293 437.717 486.752 438.866 487.057 439.628C487.167 439.906 487.293 440.219 487.357 440.316C487.885 441.09 492.171 440.366 493.786 440.103C497.414 439.5 500.553 438.978 501.846 441.26C502.773 442.892 502.084 445.05 499.738 447.847C499.007 448.717 498.23 449.379 497.54 449.897C498.112 450.237 498.623 450.76 498.831 451.58C499.32 453.521 497.646 455.467 493.86 457.37C492.92 457.846 491.654 458.48 489.88 458.786C489.044 458.929 488.292 458.964 487.648 458.983C487.634 459.354 487.547 459.757 487.32 460.17C486.655 461.389 485.271 461.969 483.185 461.83C480.889 461.71 478.999 461.273 477.332 460.89C475.876 460.557 474.621 460.275 473.636 460.341C471.81 460.488 470.402 461.946 468.751 463.837L464.627 468.645H464.627Z" fill="#F2F2F2"/>
<path d="M468.8 420.95L461.26 423.85L460.567 423.607C457.361 422.485 454.456 422.245 451.929 422.894C451.527 422.997 451.131 423.121 450.727 423.246C449.126 423.745 447.137 424.365 444.513 423.932C443.05 423.687 439.585 422.83 439.308 420.251C439.227 419.559 439.401 418.973 439.661 418.495C439.556 418.463 439.451 418.428 439.337 418.392C437.952 417.929 437.285 417.449 436.643 416.988C436.148 416.633 435.639 416.266 434.531 415.772C434.045 415.556 433.627 415.397 433.275 415.263C432.21 414.856 430.921 414.298 430.551 412.815C430.211 411.216 431.302 410.047 432.025 409.272C433.313 407.89 434.31 407.155 434.972 406.668C435.214 406.491 435.486 406.29 435.563 406.203C436.18 405.498 434.391 401.546 433.726 400.054C432.221 396.707 430.919 393.811 432.804 391.984C434.151 390.676 436.419 390.792 439.726 392.347C440.755 392.831 441.594 393.414 442.271 393.948C442.456 393.31 442.833 392.684 443.576 392.275C445.335 391.311 447.646 392.432 450.451 395.603C451.151 396.39 452.088 397.451 452.834 399.085C453.185 399.855 453.409 400.572 453.591 401.188C453.955 401.107 454.367 401.089 454.826 401.203C456.176 401.535 457.09 402.724 457.484 404.772C457.95 407.018 458.005 408.952 458.057 410.658C458.104 412.148 458.148 413.43 458.462 414.363C459.068 416.088 460.839 417.077 463.092 418.191L468.8 420.95H468.8Z" fill="#F2F2F2"/>
<path d="M464.627 397.351L463.727 389.34L464.138 388.733C466.04 385.925 467.009 383.182 467.021 380.579C467.023 380.165 467.004 379.752 466.984 379.33C466.907 377.659 466.81 375.582 467.895 373.161C468.504 371.811 470.214 368.685 472.785 369.072C473.477 369.169 474.001 369.486 474.398 369.857C474.456 369.764 474.516 369.672 474.58 369.571C475.381 368.353 476.015 367.831 476.626 367.328C477.095 366.941 477.58 366.542 478.34 365.599C478.673 365.185 478.933 364.821 479.152 364.516C479.817 363.591 480.686 362.489 482.217 362.508C483.854 362.586 484.711 363.935 485.279 364.829C486.293 366.423 486.752 367.571 487.057 368.333C487.167 368.612 487.293 368.925 487.357 369.022C487.885 369.795 492.171 369.072 493.786 368.809C497.414 368.206 500.553 367.683 501.846 369.966C502.773 371.598 502.084 373.756 499.738 376.553C499.007 377.423 498.23 378.084 497.54 378.603C498.112 378.943 498.623 379.465 498.831 380.285C499.32 382.227 497.646 384.173 493.86 386.076C492.92 386.551 491.654 387.186 489.88 387.491C489.044 387.634 488.292 387.669 487.648 387.689C487.634 388.06 487.547 388.462 487.32 388.876C486.655 390.095 485.271 390.675 483.185 390.535C480.889 390.416 478.999 389.978 477.332 389.596C475.876 389.263 474.621 388.981 473.636 389.046C471.81 389.193 470.402 390.651 468.751 392.543L464.627 397.351H464.627Z" fill="#F2F2F2"/>
<path d="M472.843 552.843L471.16 551.791L470.753 549.853L471.16 551.791L469.198 552.015C469.167 551.833 469.061 551.415 468.9 550.762C468.022 547.18 465.344 536.28 463.111 519.114C461.552 507.131 460.67 494.812 460.487 482.492C460.305 470.153 460.891 460.812 461.36 453.305C461.715 447.642 462.145 442.25 462.568 436.997C463.692 422.964 464.753 409.709 463.964 395.034C463.789 391.758 463.423 384.939 459.429 377.682C457.112 373.474 453.921 369.737 449.942 366.581L452.416 363.479C456.807 366.968 460.338 371.107 462.911 375.779C467.339 383.825 467.738 391.255 467.93 394.825C468.733 409.759 467.661 423.142 466.525 437.311C466.106 442.544 465.675 447.913 465.323 453.552C464.857 460.99 464.278 470.25 464.458 482.43C464.636 494.603 465.509 506.771 467.046 518.604C469.253 535.553 471.891 546.29 472.758 549.818C473.219 551.702 473.316 552.096 472.843 552.843V552.843L472.843 552.843Z" fill="#F2F2F2"/>
<path d="M442.66 372.874C442.497 372.874 442.332 372.871 442.166 372.859C438.784 372.677 435.653 370.658 432.857 366.86C431.547 365.073 430.876 363.034 429.538 358.969C429.331 358.342 428.323 355.163 427.71 350.788C427.309 347.93 427.359 346.735 427.927 345.679C428.557 344.503 429.577 343.683 430.725 343.13C430.674 342.751 430.715 342.36 430.88 341.962C431.557 340.31 433.356 340.527 434.329 340.631C434.821 340.693 435.436 340.774 436.099 340.739C437.142 340.689 437.703 340.38 438.552 339.916C439.364 339.471 440.374 338.918 441.873 338.612C444.828 337.997 447.303 338.833 448.12 339.107C452.414 340.534 454.531 343.865 456.982 347.721C457.471 348.495 459.148 351.31 460.255 355.171C461.053 357.956 460.941 359.193 460.701 360.114C460.212 362.005 459.058 363.088 456.129 365.479C453.069 367.981 451.534 369.235 450.216 369.997C447.146 371.764 445.219 372.874 442.66 372.874V372.874Z" fill="#F2F2F2"/>
<path d="M-170.275 551.002C-170.275 552.045 -169.435 552.883 -168.389 552.883H659.181C660.226 552.883 661.066 552.045 661.066 551.002C661.066 549.959 660.226 549.121 659.181 549.121H-168.389C-169.435 549.121 -170.275 549.959 -170.275 551.002Z" fill="#CCCCCC"/>
<path d="M459.166 272.168H213.409C212.534 272.168 211.825 271.46 211.825 270.588V36.6648C211.825 35.7912 212.534 35.0842 213.409 35.0842C214.284 35.0842 214.994 35.7912 214.994 36.6648V132.112C214.994 207.717 276.437 269.007 352.23 269.007H459.166C460.041 269.007 460.75 269.714 460.75 270.588C460.75 271.461 460.041 272.168 459.166 272.168H459.166Z" fill="#E6E6E6"/>
<path d="M211.4 185.193C219.999 182.36 225.504 175.638 223.696 170.179C221.888 164.72 213.452 162.593 204.85 165.428C201.398 166.513 198.257 168.407 195.69 170.952L159.406 183.414L165.631 200.274L200.74 186.199C204.323 186.717 207.978 186.373 211.4 185.193V185.193Z" fill="#FFB6B6"/>
<path d="M24.8838 281.824C25.1774 290.853 30.0857 298.021 35.846 297.833C41.6064 297.646 46.0365 290.176 45.7416 281.143C45.6734 277.534 44.7396 273.993 43.0184 270.817L41.2901 232.577L23.3176 233.769L26.9295 271.34C25.418 274.622 24.7165 278.217 24.8838 281.824L24.8838 281.824Z" fill="#FFB6B6"/>
<path d="M66.3763 539.491L82.4185 539.489L86.5287 477.357L66.373 477.767L66.3763 539.491Z" fill="#FFB6B6"/>
<path d="M121.339 539.128C121.838 539.967 122.102 542.675 122.102 543.651C122.102 546.651 119.664 549.082 116.657 549.082H66.9762C64.9249 549.082 63.2618 547.424 63.2618 545.377V543.314C63.2618 543.314 60.8041 537.113 65.864 529.47C65.864 529.47 72.1528 535.454 81.5498 526.081L84.3209 521.073L104.38 535.707L115.498 537.072C117.931 537.371 120.087 537.026 121.339 539.128H121.339V539.128Z" fill="#2F2E41"/>
<path d="M104.404 539.491L120.447 539.489L124.557 477.357L104.401 477.767L104.404 539.491Z" fill="#FFB6B6"/>
<path d="M159.367 539.128C159.866 539.967 160.13 542.675 160.13 543.651C160.13 546.651 157.692 549.082 154.685 549.082H105.004C102.953 549.082 101.29 547.424 101.29 545.377V543.314C101.29 543.314 98.8322 537.113 103.892 529.47C103.892 529.47 110.181 535.454 119.578 526.081L122.349 521.073L142.408 535.707L153.526 537.072C155.959 537.371 158.116 537.026 159.367 539.128H159.367V539.128Z" fill="#2F2E41"/>
<path d="M75.7114 76.7084C88.7444 76.7084 99.3097 66.1693 99.3097 53.1688C99.3097 40.1682 88.7444 29.6292 75.7114 29.6292C62.6784 29.6292 52.113 40.1682 52.113 53.1688C52.113 66.1693 62.6784 76.7084 75.7114 76.7084Z" fill="#FFB6B6"/>
<path d="M43.0598 248.966L54.1513 407.022L60.4893 512.919L90.5949 511.339L87.4259 395.958L93.7639 324.833L103.271 511.339H127.232L136.545 250.547L85.0491 243.434L43.0598 248.966Z" fill="#2F2E41"/>
<path d="M84.2568 71.9434C77.5451 78.3881 62.034 74.1149 54.1513 71.9434C49.8123 70.7481 47.1938 69.5162 46.2287 67.2017C45.5579 65.5928 45.9391 64.0672 44.6442 60.8794C43.8858 59.0122 43.4858 58.8729 43.0597 57.7183C41.8719 54.4999 43.5218 51.6324 44.6442 48.235C46.9863 41.1458 44.19 40.3497 46.2287 35.5905C49.2937 28.4355 57.6311 25.5245 60.4893 24.5266C65.8256 22.6634 70.276 22.8604 71.5808 22.946C79.9397 23.4949 85.5282 27.7736 87.4258 29.2683C91.2724 32.2982 93.1592 35.5031 96.9328 41.9127C100.217 47.4904 100.456 49.6309 100.102 51.3961C99.5622 54.0859 98.0071 54.0959 96.9328 57.7183C95.7134 61.8302 97.1005 63.8968 95.3483 65.6211C94.1639 66.7867 93.0632 66.3018 90.5948 67.2017C87.1975 68.4402 85.5206 70.73 84.2568 71.9434Z" fill="#2F2E41"/>
<path d="M103.271 95.6517C103.271 95.6517 79.5032 65.6211 49.3977 76.685L39.6474 95.6517L36.3898 98.7276C22.7248 111.631 16.3671 130.455 19.4192 148.976L33.5527 234.741C33.5527 234.741 31.9682 267.933 43.0597 277.416C43.0597 277.416 58.9047 247.385 96.9328 261.61C134.961 275.836 142.883 267.933 142.883 267.933L130.207 177.841L103.271 95.6517Z" fill="#2F2E41"/>
<path d="M95.3483 100.393L87.4258 117.78L117.531 218.935L199.925 188.905L188.834 169.938L149.221 181.002C149.221 181.002 119.116 92.4906 95.3483 100.393Z" fill="#2F2E41"/>
<path d="M39.0985 259.24H21.669L18.5 132.795L39.0985 175.47V259.24Z" fill="#2F2E41"/>
<path d="M459.274 285.104C458.405 285.104 457.529 284.912 456.694 284.521C454.635 283.556 453.342 281.627 453.237 279.361L452.383 260.986C452.273 258.625 453.508 256.48 455.606 255.384C457.704 254.288 460.176 254.501 462.057 255.934L474.603 265.505C476.112 266.655 476.974 268.402 476.968 270.294C476.962 272.19 476.089 273.929 474.574 275.072L462.882 283.877C461.803 284.689 460.547 285.104 459.274 285.104V285.104Z" fill="#E6E6E6"/>
<path d="M227.982 38.1972C227.982 39.0639 227.788 39.9383 227.397 40.771C226.43 42.8247 224.495 44.1143 222.224 44.2192L203.802 45.0713C201.437 45.1809 199.286 43.9491 198.187 41.8561C197.088 39.7639 197.302 37.2973 198.738 35.4212L208.333 22.9064C209.486 21.4015 211.238 20.5417 213.135 20.5479C215.035 20.5533 216.779 21.4238 217.924 22.9357L226.751 34.5985C227.565 35.6751 227.982 36.9277 227.982 38.1972Z" fill="#E6E6E6"/>
</svg>
